<svg xmlns="http://www.w3.org/2000/svg" xmlns:xlink="http://www.w3.org/1999/xlink" width="154" height="18" viewBox="0 0 154 18">
    <defs>
        <path id="a" d="M0 15.518h101.808V0H0z"/>
    </defs>
    <g fill="none" fill-rule="evenodd">
        <g transform="translate(0 .918)">
            <mask id="b" fill="#fff">
                <use xlink:href="#a"/>
            </mask>
            <path fill="#FFF" d="M.25 15.258h3.503V4.775H.25v10.483zM0 1.91C0 .846.887 0 2.002 0c1.114 0 2.001.846 2.001 1.91s-.887 1.932-2.001 1.932C.887 3.842 0 2.974 0 1.91zM19.697 15.258v-9.42l-3.844 9.42h-1.728l-3.821-9.42v9.42H6.39V.78h5.436l3.162 7.857L18.173.781h5.436v14.477zM33.913 10.006c0-1.39-.864-2.54-2.41-2.54-1.524 0-2.366 1.15-2.366 2.54 0 1.41.842 2.56 2.365 2.56 1.547 0 2.411-1.15 2.411-2.56m-8.392 0c0-2.952 2.251-5.492 5.981-5.492 3.776 0 6.005 2.54 6.005 5.492 0 2.951-2.229 5.512-6.005 5.512-3.73 0-5.981-2.56-5.981-5.512M39.35 15.258h3.502V.781H39.35zM53.065 10.006c0-1.39-.864-2.54-2.411-2.54-1.524 0-2.365 1.15-2.365 2.54 0 1.41.841 2.56 2.365 2.56 1.547 0 2.41-1.15 2.41-2.56m-8.392 0c0-2.952 2.252-5.492 5.982-5.492 3.776 0 6.005 2.54 6.005 5.492 0 2.951-2.23 5.512-6.005 5.512-3.73 0-5.982-2.56-5.982-5.512M65.893 11.612V8.4c-.455-.565-1.364-.934-2.115-.934-1.387 0-2.411.977-2.411 2.54 0 1.562 1.024 2.56 2.41 2.56.752 0 1.661-.39 2.116-.954zm0 3.646v-1.216c-.91.999-2.024 1.476-3.252 1.476-2.707 0-4.868-1.953-4.868-5.512 0-3.43 2.116-5.492 4.868-5.492 1.205 0 2.365.456 3.252 1.498V.782h3.48v14.476h-3.48zM77.061 7.097c-1.524 0-2.115 1.042-2.251 1.802h4.526c-.091-.738-.66-1.802-2.275-1.802m-5.845 2.909c0-3.04 2.41-5.492 5.845-5.492 3.253 0 5.618 2.28 5.618 5.839v.716h-7.824c.205.977 1.16 1.867 2.752 1.867.773 0 2.115-.326 2.73-.89l1.478 2.083c-1.092.934-2.911 1.39-4.594 1.39-3.39 0-6.005-2.106-6.005-5.513M85.136 12.436V7.683h-1.82V4.775h1.82V1.91h3.48v2.865h2.229v2.908h-2.23v3.82c0 .608.365 1.064.979 1.064.386 0 .773-.13.887-.26l.682 2.517c-.432.39-1.296.694-2.593.694-2.229 0-3.434-1.063-3.434-3.082M91.664 13.912l1.455-2.3c.82.694 2.57 1.389 3.867 1.389 1.046 0 1.478-.326 1.478-.803 0-.5-.841-.651-1.887-.825-1.866-.282-4.504-.695-4.504-3.408 0-1.845 1.66-3.45 4.708-3.45 1.843 0 3.412.564 4.595 1.388l-1.342 2.214c-.66-.607-1.91-1.15-3.23-1.15-.819 0-1.387.326-1.387.738 0 .456.59.543 1.75.738 1.866.325 4.64.76 4.64 3.603 0 1.997-1.841 3.472-5.003 3.472-1.956 0-3.98-.629-5.14-1.606" mask="url(#b)"/>
        </g>
        <path fill="#FFF" d="M110.281 17.453H103v-.914h7.281v.914zm9.336-7.71c-.385-.194-.844-.29-1.375-.29-.437 0-.828.094-1.172.281a2.817 2.817 0 0 0-.875.739 3.35 3.35 0 0 0-.55 1.047 3.911 3.911 0 0 0-.192 1.214v2.352h1.649V16h-4.368v-.914h1.649V9.633h-1.649v-.914h2.72v1.828c.489-1.333 1.418-2 2.788-2 .37 0 .692.023.965.07.273.047.527.13.762.25l-.352.875zm2.235-1.024h1.07v4.5c0 .65.142 1.155.426 1.511.284.357.74.536 1.37.536.397 0 .753-.092 1.071-.274.318-.182.589-.426.813-.73.224-.305.394-.654.511-1.047.117-.393.176-.804.176-1.23V8.718h1.078V16h-1.078v-1.82c-.51 1.333-1.427 2-2.75 2-1.792 0-2.687-.987-2.687-2.961v-4.5zM136.023 16h-4.367v-.914h1.649V6.719h-1.649v-.914h2.727v9.28h1.64V16zm2.985-3.266c.078.771.36 1.386.844 1.844.484.458 1.114.688 1.89.688.547 0 1.034-.112 1.461-.336.427-.224.748-.503.961-.836l.75.515c-.365.51-.8.9-1.305 1.168-.505.269-1.127.403-1.867.403a4.129 4.129 0 0 1-1.547-.282 3.507 3.507 0 0 1-2.008-1.984 4.09 4.09 0 0 1-.28-1.547c0-.552.084-1.061.253-1.527.17-.466.414-.87.735-1.211.32-.341.71-.607 1.167-.797.459-.19.972-.285 1.54-.285.62 0 1.161.104 1.625.312.463.209.85.496 1.16.864.31.367.539.806.687 1.316.149.51.223 1.076.223 1.695h-6.29zm5.156-.914c-.12-.797-.409-1.39-.867-1.78-.458-.392-1.024-.587-1.695-.587-.344 0-.662.056-.954.168-.291.112-.549.272-.773.48-.224.209-.411.46-.563.754a2.829 2.829 0 0 0-.289.965h5.141zm10.594 2.164c0 .427-.107.782-.32 1.063a2.3 2.3 0 0 1-.825.672c-.336.166-.71.285-1.125.355a6.984 6.984 0 0 1-3.191-.184 6.405 6.405 0 0 1-1.703-.757l.476-.922a7.833 7.833 0 0 0 1.586.781 4.86 4.86 0 0 0 1.617.274c1.61 0 2.415-.417 2.415-1.25a.657.657 0 0 0-.2-.496 1.49 1.49 0 0 0-.535-.313 4.313 4.313 0 0 0-.77-.191c-.288-.047-.592-.092-.91-.133-.406-.057-.81-.125-1.21-.203a4.634 4.634 0 0 1-1.098-.352 2.135 2.135 0 0 1-.797-.625c-.2-.26-.3-.604-.3-1.031 0-.365.092-.68.277-.945a2.24 2.24 0 0 1 .742-.665c.31-.177.673-.307 1.09-.39a6.598 6.598 0 0 1 1.296-.125c.641 0 1.214.074 1.72.223.504.148.96.36 1.366.636l-.43.836a4.106 4.106 0 0 0-1.265-.613 5.24 5.24 0 0 0-2.137-.117c-.273.039-.527.106-.761.203a1.847 1.847 0 0 0-.59.375.775.775 0 0 0-.238.582c0 .203.066.366.199.488.133.123.31.224.535.305.224.08.48.144.77.191.288.047.592.091.91.133.395.057.795.125 1.199.203.403.078.77.193 1.101.344a2.1 2.1 0 0 1 .801.617c.203.26.305.604.305 1.031z"/>
    </g>
</svg>
