<svg xmlns="http://www.w3.org/2000/svg" xmlns:xlink="http://www.w3.org/1999/xlink" width="56" height="56" viewBox="0 0 56 56">
    <defs>
        <path id="a" d="M0 56.434h55.435V1H0z"/>
    </defs>
    <g fill="none" fill-rule="evenodd" transform="translate(0 -1)">
        <path fill="#0B4ACC" d="M55.434 28.717c0 15.309-12.41 27.717-27.717 27.717C12.41 56.434.001 44.026.001 28.717 0 13.41 12.409 1.001 27.717 1.001c15.307 0 27.717 12.408 27.717 27.716z"/>
        <mask id="b" fill="#fff">
            <use xlink:href="#a"/>
        </mask>
        <path fill="#FEFEFE" d="M14.604 39.62h4.769V25.316h-4.769v14.306zm26.227-13.113a2.392 2.392 0 0 0-2.384-2.385h-7.523l1.133-5.447.034-.382c0-.488-.202-.943-.522-1.264l-1.265-1.25-7.843 7.855a2.325 2.325 0 0 0-.704 1.681v11.92a2.391 2.391 0 0 0 2.384 2.386H34.87a2.37 2.37 0 0 0 2.195-1.456l3.599-8.404c.108-.274.168-.56.168-.87v-2.277l-.012-.01.012-.097z" mask="url(#b)"/>
    </g>
</svg>
