<svg xmlns="http://www.w3.org/2000/svg" width="32" height="31" viewBox="0 0 32 31">
    <path fill="#0B4ACC" fill-rule="evenodd" d="M17.832 1.151l3.362 6.886a2.044 2.044 0 0 0 1.537 1.13l7.518 1.104c1.675.247 2.344 2.326 1.132 3.52l-5.44 5.362c-.48.473-.7 1.158-.587 1.827l1.284 7.569c.285 1.685-1.466 2.971-2.964 2.177L16.95 27.15a2.027 2.027 0 0 0-1.902 0l-6.723 3.575c-1.499.794-3.25-.492-2.964-2.177l1.284-7.569a2.079 2.079 0 0 0-.587-1.827l-5.44-5.361c-1.212-1.195-.544-3.274 1.133-3.521l7.517-1.105a2.047 2.047 0 0 0 1.538-1.129l3.36-6.886c.75-1.535 2.915-1.535 3.665 0"/>
</svg>
